<svg width="52" height="52" viewBox="0 0 52 52" fill="none" xmlns="http://www.w3.org/2000/svg">
<circle cx="25.6073" cy="26.4954" r="24.8201" fill="white" stroke="black" stroke-width="1.38707"/>
<path d="M15.4251 19.5873H18.8374V21.4977C20.0583 20.0133 21.512 19.2711 23.1984 19.2711C24.0943 19.2711 24.8716 19.4556 25.5304 19.8245C26.1891 20.1934 26.7293 20.7511 27.1509 21.4977C27.7658 20.7511 28.4289 20.1934 29.1404 19.8245C29.8518 19.4556 30.6116 19.2711 31.4197 19.2711C32.4473 19.2711 33.3169 19.4819 34.0283 19.9035C34.7398 20.3163 35.2712 20.9268 35.6225 21.7349C35.8772 22.3321 36.0046 23.2983 36.0046 24.6334V33.5793H32.3024V25.582C32.3024 24.1942 32.175 23.2983 31.9203 22.8943C31.5778 22.3673 31.0507 22.1038 30.3393 22.1038C29.8211 22.1038 29.3336 22.2619 28.8769 22.5781C28.4201 22.8943 28.0907 23.3598 27.8887 23.9746C27.6867 24.5807 27.5857 25.5425 27.5857 26.86V33.5793H23.8835V25.9114C23.8835 24.5499 23.8176 23.6716 23.6859 23.2764C23.5541 22.8811 23.3477 22.5869 23.0666 22.3936C22.7944 22.2004 22.4211 22.1038 21.9468 22.1038C21.3758 22.1038 20.862 22.2575 20.4053 22.5649C19.9485 22.8723 19.6192 23.3159 19.4171 23.8956C19.2239 24.4753 19.1273 25.4371 19.1273 26.7809V33.5793H15.4251V19.5873Z" fill="black"/>
</svg>
